<svg id="Layer_1" viewBox="0 0 24 24" xmlns="http://www.w3.org/2000/svg" data-name="Layer 1" fill="white"><path d="m12 11.75c2.62 0 4.75-2.13 4.75-4.75s-2.13-4.75-4.75-4.75-4.75 2.13-4.75 4.75 2.13 4.75 4.75 4.75zm0-8c1.79 0 3.25 1.46 3.25 3.25s-1.46 3.25-3.25 3.25-3.25-1.46-3.25-3.25 1.46-3.25 3.25-3.25z" fill="white"/><path d="m13.97 20.25h-7.97c-.69 0-1.25-.56-1.25-1.25 0-2.34 1.91-4.25 4.25-4.25h5c.41 0 .75-.34.75-.75s-.34-.75-.75-.75h-5c-3.17 0-5.75 2.58-5.75 5.75 0 1.52 1.23 2.75 2.75 2.75h7.97c.41 0 .75-.34.75-.75s-.34-.75-.75-.75z" fill="white"/><path d="m21 17.25h-2.25v-2.25c0-.41-.34-.75-.75-.75s-.75.34-.75.75v2.25h-2.25c-.41 0-.75.34-.75.75s.34.75.75.75h2.25v2.25c0 .41.34.75.75.75s.75-.34.75-.75v-2.25h2.25c.41 0 .75-.34.75-.75s-.34-.75-.75-.75z" fill="white"/></svg>