<svg id="Glyph" viewBox="0 0 64 64" xmlns="http://www.w3.org/2000/svg" fill="white"><path d="m42.855 17.18528c4.52758 7.0257 15.64578 3.83576 15.67334-4.64611a8.54292 8.54292 0 0 0 -8.53734-8.53717c-6.6301-.14491-10.8839 7.76132-7.136 13.18328z"/><path d="m49.991 42.99143a8.55033 8.55033 0 0 0 -8.52656 8.52657c.42692 11.316 16.64088 11.30264 17.06391-.00013a8.54072 8.54072 0 0 0 -8.53735-8.52644z"/><path d="m22.56791 40.87862c-.0241.01793 16.75536 10.04827 16.75131 10.05732a10.13123 10.13123 0 0 1 .38813-2.29606l-16.02912-9.60451a10.595 10.595 0 0 1 -1.11032 1.84325z"/><path d="m21.25284 29.99134c-4.476-7.18887-15.73392-4.08763-15.78119 4.49519a8.543 8.543 0 0 0 8.53735 8.53727c6.57534.15729 10.78313-7.65055 7.24384-13.03246z"/><path d="m41.62607 19.16874a10.58889 10.58889 0 0 1 -1.1642-1.81095l-17.894 10.73635a11.41885 11.41885 0 0 1 1.09952 1.84333z"/></svg>