<?xml version="1.0" encoding="UTF-8"?>
<svg id="Layer_2" data-name="Layer 2" xmlns="http://www.w3.org/2000/svg" viewBox="0 0 84.73 58.43" fill="white">
  <defs>
    <style>
      .cls-1 {
        fill: #0058ff;
      }
    </style>
  </defs>
  <g id="Layer_1-2" data-name="Layer 1">
    <path class="cls-1" d="M38.87,31.13c1.36-1.36,1.36-3.55,0-4.91s-3.55-1.35-4.91,0c-1.07,1.07-1.28,2.65-.67,3.94l-7.8,7.8,10.23,10.23c1.78,1.78,1.78,4.66,0,6.44-.86,.86-2,1.33-3.22,1.33s-2.36-.47-3.22-1.33l-16-16L37.99,13.92c3.18-3.18,3.18-8.35,0-11.53-3.18-3.18-8.35-3.18-11.53,0L0,28.84l27.53,27.53c1.33,1.33,3.09,2.06,4.97,2.06s3.64-.73,4.97-2.06c2.74-2.74,2.74-7.2,0-9.93l-8.48-8.48,6.08-6.08c1.26,.53,2.77,.28,3.8-.74M3.5,28.84L28.2,4.14c2.22-2.22,5.82-2.22,8.04,0,1.07,1.07,1.66,2.5,1.66,4.02s-.59,2.94-1.66,4.02L11.53,36.88,3.5,28.84Z"/>
    <path class="cls-1" d="M57.19,2.06c-1.33-1.33-3.09-2.06-4.97-2.06s-3.64,.73-4.97,2.06c-1.33,1.33-2.06,3.09-2.06,4.97s.73,3.64,2.06,4.97l7.12,7.12c-.56,1.27-.32,2.81,.72,3.85,1.36,1.35,3.55,1.35,4.91,0,1.36-1.36,1.36-3.55,0-4.91-1.05-1.05-2.61-1.28-3.88-.7l-7.11-7.11c-.86-.86-1.33-2-1.33-3.22s.47-2.36,1.33-3.22c.86-.86,2-1.33,3.22-1.33s2.36,.47,3.22,1.33l16,16-24.71,24.71c-3.18,3.18-3.18,8.35,0,11.53,1.59,1.59,3.68,2.38,5.77,2.38s4.18-.79,5.77-2.38l26.45-26.45L57.19,2.06Zm-.67,52.24c-2.22,2.22-5.82,2.22-8.04,0-2.22-2.22-2.22-5.82,0-8.04l24.7-24.71,8.04,8.04-24.71,24.71Z"/>
  </g>
</svg>